<svg width="65" height="61" viewBox="0 0 65 61" fill="none" xmlns="http://www.w3.org/2000/svg">
<g clip-path="url(#clip0_1404_23)">
<path d="M50.7486 32.0696C42.9583 32.0696 36.6441 38.384 36.6441 46.1736C36.6441 53.9636 42.9583 60.2786 50.7486 60.2786C58.5379 60.2786 64.8526 53.9636 64.8526 46.1736C64.8526 38.384 58.5379 32.0696 50.7486 32.0696ZM14.1042 32.0706C6.31491 32.0706 0 38.384 0 46.1743C0 53.9636 6.31491 60.2786 14.1042 60.2786C21.8941 60.2786 28.2092 53.9636 28.2092 46.1743C28.2092 38.384 21.8941 32.0706 14.1042 32.0706ZM46.5302 14.439C46.5302 22.2285 40.216 28.5444 32.4267 28.5444C24.6366 28.5444 18.3222 22.2285 18.3222 14.439C18.3222 6.64988 24.6366 0.334961 32.4267 0.334961C40.216 0.334961 46.5302 6.64988 46.5302 14.439Z" fill="url(#paint0_radial_1404_23)"/>
</g>
<defs>
<radialGradient id="paint0_radial_1404_23" cx="0" cy="0" r="1" gradientUnits="userSpaceOnUse" gradientTransform="translate(32.4263 33.0955) scale(42.9735 39.7206)">
<stop stop-color="#FFB900"/>
<stop offset="0.6" stop-color="#F95D8F"/>
<stop offset="0.9991" stop-color="#F95353"/>
</radialGradient>
<clipPath id="clip0_1404_23">
<rect width="65" height="60.3093" fill="white"/>
</clipPath>
</defs>
</svg>
