<svg width="85" height="71" viewBox="0 0 85 71" fill="none" xmlns="http://www.w3.org/2000/svg">
<path d="M11.4718 55L9.15184 48H10.5018L12.5718 54.33H11.9018L14.0518 48H15.2518L17.3418 54.33H16.6918L18.8118 48H20.0518L17.7318 55H16.3518L14.4418 49.29H14.8018L12.8618 55H11.4718ZM19.8963 55L23.0463 48H24.3263L27.4863 55H26.1263L23.4163 48.69H23.9363L21.2363 55H19.8963ZM21.3463 53.38L21.6963 52.36H25.4763L25.8263 53.38H21.3463ZM28.3765 55V48H29.6765V53.9H33.3365V55H28.3765ZM36.484 55.1C35.9374 55.1 35.414 55.0233 34.914 54.87C34.414 54.71 34.0174 54.5067 33.724 54.26L34.174 53.25C34.454 53.47 34.8007 53.6533 35.214 53.8C35.6274 53.9467 36.0507 54.02 36.484 54.02C36.8507 54.02 37.1474 53.98 37.374 53.9C37.6007 53.82 37.7674 53.7133 37.874 53.58C37.9807 53.44 38.034 53.2833 38.034 53.11C38.034 52.8967 37.9574 52.7267 37.804 52.6C37.6507 52.4667 37.4507 52.3633 37.204 52.29C36.964 52.21 36.694 52.1367 36.394 52.07C36.1007 52.0033 35.804 51.9267 35.504 51.84C35.2107 51.7467 34.9407 51.63 34.694 51.49C34.454 51.3433 34.2574 51.15 34.104 50.91C33.9507 50.67 33.874 50.3633 33.874 49.99C33.874 49.61 33.974 49.2633 34.174 48.95C34.3807 48.63 34.6907 48.3767 35.104 48.19C35.524 47.9967 36.054 47.9 36.694 47.9C37.114 47.9 37.5307 47.9533 37.944 48.06C38.3574 48.1667 38.7174 48.32 39.024 48.52L38.614 49.53C38.3007 49.3433 37.9774 49.2067 37.644 49.12C37.3107 49.0267 36.9907 48.98 36.684 48.98C36.324 48.98 36.0307 49.0233 35.804 49.11C35.584 49.1967 35.4207 49.31 35.314 49.45C35.214 49.59 35.164 49.75 35.164 49.93C35.164 50.1433 35.2374 50.3167 35.384 50.45C35.5374 50.5767 35.734 50.6767 35.974 50.75C36.2207 50.8233 36.494 50.8967 36.794 50.97C37.094 51.0367 37.3907 51.1133 37.684 51.2C37.984 51.2867 38.254 51.4 38.494 51.54C38.7407 51.68 38.9374 51.87 39.084 52.11C39.2374 52.35 39.314 52.6533 39.314 53.02C39.314 53.3933 39.2107 53.74 39.004 54.06C38.804 54.3733 38.494 54.6267 38.074 54.82C37.654 55.0067 37.124 55.1 36.484 55.1ZM45.5231 48H46.8231V55H45.5231V48ZM41.9031 55H40.6031V48H41.9031V55ZM45.6231 52H41.7931V50.89H45.6231V52ZM53.1125 55L50.7925 48H52.1425L54.2125 54.33H53.5425L55.6925 48H56.8925L58.9825 54.33H58.3325L60.4525 48H61.6925L59.3725 55H57.9925L56.0825 49.29H56.4425L54.5025 55H53.1125ZM63.9515 50.91H67.4315V51.98H63.9515V50.91ZM64.0515 53.91H68.0015V55H62.7515V48H67.8615V49.09H64.0515V53.91ZM69.4507 55V48H72.7307C73.5707 48 74.2107 48.1667 74.6507 48.5C75.0907 48.8267 75.3107 49.2667 75.3107 49.82C75.3107 50.1933 75.2241 50.5133 75.0507 50.78C74.8774 51.04 74.6441 51.2433 74.3507 51.39C74.0641 51.53 73.7507 51.6 73.4107 51.6L73.5907 51.24C73.9841 51.24 74.3374 51.3133 74.6507 51.46C74.9641 51.6 75.2107 51.8067 75.3907 52.08C75.5774 52.3533 75.6707 52.6933 75.6707 53.1C75.6707 53.7 75.4407 54.1667 74.9807 54.5C74.5207 54.8333 73.8374 55 72.9307 55H69.4507ZM70.7507 53.98H72.8507C73.3374 53.98 73.7107 53.9 73.9707 53.74C74.2307 53.58 74.3607 53.3233 74.3607 52.97C74.3607 52.6233 74.2307 52.37 73.9707 52.21C73.7107 52.0433 73.3374 51.96 72.8507 51.96H70.6507V50.95H72.5907C73.0441 50.95 73.3907 50.87 73.6307 50.71C73.8774 50.55 74.0007 50.31 74.0007 49.99C74.0007 49.6633 73.8774 49.42 73.6307 49.26C73.3907 49.1 73.0441 49.02 72.5907 49.02H70.7507V53.98ZM23.3082 67V60H26.3682C27.1282 60 27.7948 60.1467 28.3682 60.44C28.9415 60.7333 29.3882 61.14 29.7082 61.66C30.0282 62.18 30.1882 62.7933 30.1882 63.5C30.1882 64.2 30.0282 64.8133 29.7082 65.34C29.3882 65.86 28.9415 66.2667 28.3682 66.56C27.7948 66.8533 27.1282 67 26.3682 67H23.3082ZM24.6082 65.9H26.3082C26.8348 65.9 27.2882 65.8 27.6682 65.6C28.0548 65.4 28.3515 65.12 28.5582 64.76C28.7715 64.4 28.8782 63.98 28.8782 63.5C28.8782 63.0133 28.7715 62.5933 28.5582 62.24C28.3515 61.88 28.0548 61.6 27.6682 61.4C27.2882 61.2 26.8348 61.1 26.3082 61.1H24.6082V65.9ZM32.7699 62.91H36.2499V63.98H32.7699V62.91ZM32.8699 65.91H36.8199V67H31.5699V60H36.6799V61.09H32.8699V65.91ZM40.4391 67.1C39.8924 67.1 39.3691 67.0233 38.8691 66.87C38.3691 66.71 37.9724 66.5067 37.6791 66.26L38.1291 65.25C38.4091 65.47 38.7558 65.6533 39.1691 65.8C39.5824 65.9467 40.0058 66.02 40.4391 66.02C40.8058 66.02 41.1024 65.98 41.3291 65.9C41.5558 65.82 41.7224 65.7133 41.8291 65.58C41.9358 65.44 41.9891 65.2833 41.9891 65.11C41.9891 64.8967 41.9124 64.7267 41.7591 64.6C41.6058 64.4667 41.4058 64.3633 41.1591 64.29C40.9191 64.21 40.6491 64.1367 40.3491 64.07C40.0558 64.0033 39.7591 63.9267 39.4591 63.84C39.1658 63.7467 38.8958 63.63 38.6491 63.49C38.4091 63.3433 38.2124 63.15 38.0591 62.91C37.9058 62.67 37.8291 62.3633 37.8291 61.99C37.8291 61.61 37.9291 61.2633 38.1291 60.95C38.3358 60.63 38.6458 60.3767 39.0591 60.19C39.4791 59.9967 40.0091 59.9 40.6491 59.9C41.0691 59.9 41.4858 59.9533 41.8991 60.06C42.3124 60.1667 42.6724 60.32 42.9791 60.52L42.5691 61.53C42.2558 61.3433 41.9324 61.2067 41.5991 61.12C41.2658 61.0267 40.9458 60.98 40.6391 60.98C40.2791 60.98 39.9858 61.0233 39.7591 61.11C39.5391 61.1967 39.3758 61.31 39.2691 61.45C39.1691 61.59 39.1191 61.75 39.1191 61.93C39.1191 62.1433 39.1924 62.3167 39.3391 62.45C39.4924 62.5767 39.6891 62.6767 39.9291 62.75C40.1758 62.8233 40.4491 62.8967 40.7491 62.97C41.0491 63.0367 41.3458 63.1133 41.6391 63.2C41.9391 63.2867 42.2091 63.4 42.4491 63.54C42.6958 63.68 42.8924 63.87 43.0391 64.11C43.1924 64.35 43.2691 64.6533 43.2691 65.02C43.2691 65.3933 43.1658 65.74 42.9591 66.06C42.7591 66.3733 42.4491 66.6267 42.0291 66.82C41.6091 67.0067 41.0791 67.1 40.4391 67.1ZM44.5582 67V60H45.8582V67H44.5582ZM51.0215 67.1C50.4749 67.1 49.9715 67.0133 49.5115 66.84C49.0582 66.66 48.6615 66.41 48.3215 66.09C47.9815 65.7633 47.7182 65.38 47.5315 64.94C47.3449 64.5 47.2515 64.02 47.2515 63.5C47.2515 62.98 47.3449 62.5 47.5315 62.06C47.7182 61.62 47.9815 61.24 48.3215 60.92C48.6682 60.5933 49.0715 60.3433 49.5315 60.17C49.9915 59.99 50.4949 59.9 51.0415 59.9C51.6349 59.9 52.1682 59.9967 52.6415 60.19C53.1215 60.3833 53.5249 60.6667 53.8515 61.04L53.0315 61.84C52.7582 61.5667 52.4615 61.3667 52.1415 61.24C51.8282 61.1067 51.4815 61.04 51.1015 61.04C50.7349 61.04 50.3949 61.1 50.0815 61.22C49.7682 61.34 49.4982 61.51 49.2715 61.73C49.0449 61.95 48.8682 62.21 48.7415 62.51C48.6215 62.81 48.5615 63.14 48.5615 63.5C48.5615 63.8533 48.6215 64.18 48.7415 64.48C48.8682 64.78 49.0449 65.0433 49.2715 65.27C49.4982 65.49 49.7649 65.66 50.0715 65.78C50.3782 65.9 50.7182 65.96 51.0915 65.96C51.4382 65.96 51.7715 65.9067 52.0915 65.8C52.4182 65.6867 52.7282 65.5 53.0215 65.24L53.7615 66.21C53.3949 66.5033 52.9682 66.7267 52.4815 66.88C52.0015 67.0267 51.5149 67.1 51.0215 67.1ZM52.5315 66.04V63.42H53.7615V66.21L52.5315 66.04ZM55.4761 67V60H56.5461L60.9361 65.39H60.4061V60H61.6961V67H60.6261L56.2361 61.61H56.7661V67H55.4761Z" fill="black"/>
<mask id="mask0_582_3" style="mask-type:luminance" maskUnits="userSpaceOnUse" x="25" y="0" width="34" height="32">
<path d="M25.2715 0H58.5895V31.9313H25.2715V0Z" fill="white"/>
</mask>
<g mask="url(#mask0_582_3)">
<path d="M55.122 6.62553V31.5883H58.6366V0.0136719H52.8606C52.8606 1.99322 51.9984 3.88359 50.4767 5.24342L25.2715 27.7273L28.1312 30.7011L55.122 6.62553Z" fill="black"/>
</g>
<mask id="mask1_582_3" style="mask-type:luminance" maskUnits="userSpaceOnUse" x="25" y="0" width="27" height="5">
<path d="M25.2715 0H51.1033V4.53869H25.2715V0Z" fill="white"/>
</mask>
<g mask="url(#mask1_582_3)">
<path d="M50.0951 0.00390625H25.2715V3.98529C26.3504 3.98529 46.213 3.98529 46.948 3.98529C46.948 3.98529 51.1928 3.1471 50.0951 0.00390625Z" fill="black"/>
</g>
<mask id="mask2_582_3" style="mask-type:luminance" maskUnits="userSpaceOnUse" x="25" y="37" width="34" height="5">
<path d="M25.2715 37.6387H58.5895V41.1564H25.2715V37.6387Z" fill="white"/>
</mask>
<g mask="url(#mask2_582_3)">
<path d="M25.2715 37.8867H58.646V41.2172H25.2715V37.8867Z" fill="black"/>
</g>
</svg>
