<svg width="66" height="65" viewBox="0 0 66 65" fill="none" xmlns="http://www.w3.org/2000/svg">
<g clip-path="url(#clip0_1404_17)">
<path d="M35 65C54.33 65 70 49.33 70 30C70 10.67 54.33 -5 35 -5C15.67 -5 0 10.67 0 30C0 49.33 15.67 65 35 65Z" fill="#0061FF"/>
<path d="M26.25 16.4307L17.5 22.002L26.25 27.5732L35 22.002L26.25 16.4307ZM43.75 16.4307L35 22.002L43.75 27.5732L52.5 22.002L43.75 16.4307ZM17.5 33.1582L26.25 38.7295L35 33.1582L26.25 27.5869L17.5 33.1582ZM43.75 27.5801L35 33.1514L43.75 38.7227L52.5 33.1514L43.75 27.5801ZM26.25 40.5889L35 46.1602L43.75 40.5889L35 35.0176L26.25 40.5889Z" fill="white"/>
</g>
<defs>
<clipPath id="clip0_1404_17">
<rect width="66" height="65" fill="white"/>
</clipPath>
</defs>
</svg>
