<svg width="66" height="67" viewBox="0 0 66 67" fill="none" xmlns="http://www.w3.org/2000/svg">
<rect x="0.5" y="0.5" width="65" height="66" rx="4.5" fill="white"/>
<path d="M11.1581 48.0171L13.5837 52.2067C14.0877 53.0887 14.8122 53.7818 15.6627 54.2858C18.0989 51.1934 19.7947 48.8204 20.7501 47.1666C21.7197 45.4883 22.9115 42.8632 24.3255 39.2914C20.5151 38.7898 17.6275 38.5391 15.6627 38.5391C13.7773 38.5391 10.8898 38.7898 7 39.2914C7 40.2679 7.25201 41.2444 7.75602 42.1264L11.1581 48.0171Z" fill="#0066DA"/>
<path d="M53.3383 54.2858C54.1888 53.7818 54.9133 53.0887 55.4173 52.2067L56.4254 50.4742L61.245 42.1264C61.749 41.2444 62.001 40.2679 62.001 39.2914C58.0887 38.7898 55.2064 38.5391 53.354 38.5391C51.3633 38.5391 48.481 38.7898 44.707 39.2914C46.1043 42.8828 47.2803 45.5078 48.2351 47.1666C49.1984 48.8399 50.8994 51.213 53.3383 54.2858Z" fill="#EA4335"/>
<path d="M34.5007 21.6508C37.3194 18.2465 39.262 15.6214 40.3283 13.7756C41.187 12.2893 42.132 9.91627 43.1634 6.65641C42.3128 6.15239 41.3363 5.90039 40.3283 5.90039H28.673C27.665 5.90039 26.6884 6.1839 25.8379 6.65641C27.1498 10.3951 28.263 13.0559 29.1774 14.6388C30.188 16.388 31.9624 18.7254 34.5007 21.6508Z" fill="#00832D"/>
<path d="M44.6744 39.291H24.3248L15.6621 54.2854C16.5126 54.7894 17.4892 55.0414 18.4972 55.0414H50.5021C51.5101 55.0414 52.4866 54.7579 53.3372 54.2854L44.6744 39.291Z" fill="#2684FC"/>
<path d="M34.5003 21.6507L25.8376 6.65625C24.987 7.16026 24.2625 7.85325 23.7585 8.73532L7.75602 36.4561C7.25201 37.3381 7 38.3147 7 39.2912H24.3255L34.5003 21.6507Z" fill="#00AC47"/>
<path d="M53.243 22.5957L45.2418 8.73532C44.7378 7.85325 44.0133 7.16026 43.1627 6.65625L34.5 21.6507L44.6748 39.2912H61.9688C61.9688 38.3147 61.7168 37.3381 61.2128 36.4561L53.243 22.5957Z" fill="#FFBA00"/>
<rect x="0.5" y="0.5" width="65" height="66" rx="4.5" stroke="#F6F9F6"/>
</svg>
