<svg width="66" height="66" viewBox="0 0 66 66" fill="none" xmlns="http://www.w3.org/2000/svg">
<g clip-path="url(#clip0_1403_74)">
<path d="M70 27.1063H49.5308L67.2583 16.8717L63.3646 10.1283L45.6371 20.3629L55.8688 2.63833L49.1254 -1.25833L38.8938 16.4663V-4H31.1063V16.4692L20.8717 -1.25833L14.1283 2.63542L24.3629 20.36L6.63542 10.1283L2.74167 16.8717L20.4692 27.1063H0V34.8938H20.4663L2.74167 45.1283L6.63542 51.8746L24.36 41.6429L14.1254 59.3675L20.8688 63.2613L31.1033 45.5338V66H38.8908V45.5338L49.1225 63.2583L55.8658 59.3646L45.6313 41.6371L63.3588 51.8717L67.2525 45.1254L49.5279 34.8938H69.9942V27.1063H70V27.1063ZM35 41.5904C32.1804 41.5904 29.4763 40.4703 27.4826 38.4766C25.4888 36.4829 24.3687 33.7788 24.3687 30.9592C24.3687 28.1396 25.4888 25.4355 27.4826 23.4417C29.4763 21.448 32.1804 20.3279 35 20.3279C37.8196 20.3279 40.5237 21.448 42.5174 23.4417C44.5112 25.4355 45.6313 28.1396 45.6313 30.9592C45.6313 33.7788 44.5112 36.4829 42.5174 38.4766C40.5237 40.4703 37.8196 41.5904 35 41.5904V41.5904Z" fill="#615EFA"/>
</g>
<defs>
<clipPath id="clip0_1403_74">
<rect width="66" height="66" fill="white"/>
</clipPath>
</defs>
</svg>
