<svg width="60" height="60" viewBox="0 0 60 60" fill="none" xmlns="http://www.w3.org/2000/svg">
<g clip-path="url(#clip0_1404_27)">
<path d="M54.1406 0H5.85938C2.62333 0 0 2.62333 0 5.85938V54.1406C0 57.3767 2.62333 60 5.85938 60H54.1406C57.3767 60 60 57.3767 60 54.1406V5.85938C60 2.62333 57.3767 0 54.1406 0Z" fill="url(#paint0_linear_1404_27)"/>
<path d="M49.3879 7.7998H36.7129C35.1596 7.7998 33.9004 9.059 33.9004 10.6123V31.2373C33.9004 32.7906 35.1596 34.0498 36.7129 34.0498H49.3879C50.9412 34.0498 52.2004 32.7906 52.2004 31.2373V10.6123C52.2004 9.059 50.9412 7.7998 49.3879 7.7998Z" fill="white"/>
<path d="M23.2883 7.7998H10.6133C9.05998 7.7998 7.80078 9.059 7.80078 10.6123V46.2373C7.80078 47.7906 9.05998 49.0498 10.6133 49.0498H23.2883C24.8416 49.0498 26.1008 47.7906 26.1008 46.2373V10.6123C26.1008 9.059 24.8416 7.7998 23.2883 7.7998Z" fill="white"/>
</g>
<defs>
<linearGradient id="paint0_linear_1404_27" x1="30" y1="0" x2="30" y2="60" gradientUnits="userSpaceOnUse">
<stop stop-color="#0091E6"/>
<stop offset="1" stop-color="#0079BF"/>
</linearGradient>
<clipPath id="clip0_1404_27">
<rect width="60" height="60" fill="white"/>
</clipPath>
</defs>
</svg>
