<svg width="65" height="65" viewBox="0 0 65 65" fill="none" xmlns="http://www.w3.org/2000/svg">
<g clip-path="url(#clip0_1404_2)">
<path d="M32.5203 0C34.3563 0.00337274 36.162 0.158519 37.9173 0.451948V19.373L51.3315 5.99337C52.813 7.04565 54.1991 8.216 55.4805 9.49428C56.7626 10.7726 57.9395 12.1588 58.9943 13.636L45.5795 27.0157H64.55C64.8444 28.7661 65 30.5605 65 32.3952V32.4391C65 34.2738 64.8444 36.0715 64.55 37.822H45.5762L58.9943 51.1983C57.9395 52.6755 56.7626 54.0618 55.4844 55.34H55.4805C54.1991 56.6183 52.813 57.792 51.3353 58.8409L37.9173 45.4612V64.3823C36.1652 64.6758 34.3596 64.8308 32.5236 64.8346H32.4764C30.6398 64.8308 28.8413 64.6758 27.086 64.3823V45.4612L13.6718 58.8409C10.7093 56.7397 8.11927 54.1528 6.00892 51.1983L19.4238 37.822H0.453187C0.155581 36.0681 0 34.2637 0 32.4289V32.3348C0.00308381 31.8586 0.0342621 31.277 0.079044 30.6752L0.092872 30.4941C0.225468 28.8003 0.453187 27.0157 0.453187 27.0157H19.4238L6.00892 13.636C7.06054 12.1588 8.23418 10.7759 9.51563 9.50106L9.52208 9.49428C10.8009 8.216 12.1902 7.04565 13.6718 5.99337L27.086 19.373V0.451948C28.8413 0.158519 30.6437 0.00337274 32.4829 0H32.5203ZM32.5171 24.3141H32.4861C30.0717 24.3141 27.7593 24.756 25.6218 25.5586C24.8207 27.6869 24.3772 29.9938 24.374 32.402V32.4323C24.3772 34.8405 24.8207 37.1474 25.6251 39.2756C27.7593 40.0784 30.0717 40.5202 32.4861 40.5202H32.5171C34.9315 40.5202 37.2439 40.0784 39.3782 39.2756C40.1825 37.1441 40.626 34.8405 40.626 32.4323V32.402C40.626 29.9938 40.1825 27.6869 39.3782 25.5586C37.2439 24.756 34.9315 24.3141 32.5171 24.3141Z" fill="#FF4A00"/>
</g>
<defs>
<clipPath id="clip0_1404_2">
<rect width="65" height="65" fill="white"/>
</clipPath>
</defs>
</svg>
